<?xml version="1.0" standalone="no"?>
<!DOCTYPE svg PUBLIC "-//W3C//DTD SVG 20010904//EN"
 "http://www.w3.org/TR/2001/REC-SVG-20010904/DTD/svg10.dtd">
<svg version="1.0" xmlns="http://www.w3.org/2000/svg"
 width="405.000000pt" height="405.000000pt" viewBox="0 0 405.000000 405.000000"
 preserveAspectRatio="xMidYMid meet">
<metadata>
Created by potrace 1.14, written by Peter Selinger 2001-2017
</metadata>
<g transform="translate(0.000000,405.000000) scale(0.100000,-0.100000)"
fill="#000000" stroke="none">
<path d="M1993 3906 c-215 -49 -422 -239 -530 -486 -31 -72 -34 -75 -75 -86
-24 -6 -53 -16 -66 -23 -12 -6 -22 -10 -22 -7 0 2 -19 -2 -42 -9 -322 -101
-444 -136 -482 -139 -18 -1 -19 -35 -19 -1254 0 -1056 2 -1255 14 -1266 13
-12 81 -42 139 -61 3 -1 28 -12 55 -24 28 -13 95 -41 150 -63 55 -22 104 -43
110 -46 5 -4 12 -7 15 -7 6 -1 133 -54 205 -86 28 -12 55 -23 60 -24 6 -2 28
-11 50 -20 22 -10 42 -19 45 -20 3 -1 22 -9 44 -18 21 -9 41 -17 43 -17 3 0
34 -13 70 -30 35 -16 69 -30 74 -30 5 0 17 -4 27 -10 9 -5 43 -21 75 -34 31
-14 57 -30 57 -36 0 -13 50 -1 68 17 7 7 18 13 23 13 5 0 28 9 52 20 23 10 65
28 92 39 28 11 87 35 133 54 45 20 82 33 82 30 0 -2 13 5 29 16 16 12 34 21
41 21 10 0 61 21 125 50 11 6 52 23 90 38 225 92 351 145 360 152 6 4 22 10
37 14 15 3 38 17 52 31 14 14 30 25 36 25 6 0 8 4 5 10 -3 5 1 10 10 10 9 0
13 5 10 10 -3 6 -1 10 5 10 7 0 10 7 6 15 -3 8 -1 15 5 15 6 0 9 6 6 14 -3 8
-1 17 6 19 9 3 8 8 -2 20 -12 15 -11 17 4 17 14 0 15 3 6 14 -9 11 -9 15 1 18
11 4 11 8 0 20 -10 13 -10 17 0 20 11 4 11 8 0 20 -10 13 -10 17 0 20 11 4 11
8 0 20 -10 13 -10 17 0 20 11 4 11 8 0 20 -10 13 -10 17 0 20 11 4 11 8 0 20
-10 13 -10 17 0 20 11 4 11 8 0 20 -10 13 -10 17 0 20 11 4 11 8 0 20 -10 13
-10 17 0 20 11 4 11 8 0 20 -10 13 -10 17 0 20 11 4 11 8 0 20 -10 13 -10 17
0 20 11 4 11 8 0 20 -10 13 -10 17 0 20 11 4 11 8 0 20 -10 13 -10 17 0 20 11
4 11 8 0 20 -10 13 -10 17 0 20 11 4 11 8 0 20 -10 13 -10 17 0 20 11 4 11 8
0 20 -10 13 -10 17 0 20 11 4 11 8 0 20 -10 13 -10 17 0 20 11 4 11 8 0 20
-10 13 -10 17 0 20 11 4 11 8 0 20 -10 13 -10 17 0 21 10 3 8 10 -6 26 -18 20
-18 21 -1 21 14 0 15 3 6 14 -9 11 -9 15 1 18 11 4 11 8 0 20 -10 13 -10 17 0
21 8 3 -28 46 -95 113 -71 70 -104 110 -96 114 6 4 8 13 5 19 -4 6 0 11 9 11
9 0 13 5 10 10 -3 6 -1 10 5 10 7 0 10 7 6 15 -3 10 1 15 11 15 9 0 13 3 10 6
-4 4 3 15 14 25 12 10 18 23 14 28 -3 6 -1 11 5 11 7 0 10 7 6 15 -3 9 0 15
10 15 8 0 12 5 9 10 -3 6 -1 10 5 10 7 0 10 7 6 15 -3 9 0 15 10 15 8 0 12 4
9 10 -3 6 1 10 10 10 9 0 13 4 10 10 -3 6 -1 10 5 10 7 0 10 7 6 15 -3 8 -1
15 5 15 6 0 9 6 6 14 -3 8 -1 17 6 19 9 3 9 8 -1 19 -10 13 -10 17 0 21 10 3
8 10 -6 26 -18 20 -18 21 -1 21 17 0 17 1 0 20 -17 19 -17 20 0 20 14 0 15 3
6 14 -9 11 -9 15 1 18 11 4 11 8 0 20 -10 13 -10 17 0 20 11 4 11 8 0 20 -10
13 -10 17 0 20 11 4 11 8 0 20 -10 13 -10 17 0 20 11 4 11 8 0 20 -10 13 -10
17 0 20 11 4 11 8 0 20 -10 13 -10 17 0 20 11 4 11 8 0 20 -10 13 -10 17 0 20
11 4 11 8 0 20 -10 13 -10 17 0 20 11 4 11 8 0 20 -10 13 -10 17 0 20 11 4 11
8 0 20 -10 13 -10 17 0 20 11 4 11 8 0 20 -10 13 -10 17 0 20 11 4 11 8 0 20
-10 13 -10 17 0 20 11 4 11 8 0 20 -10 13 -10 17 0 21 10 3 8 10 -6 26 -18 20
-18 21 -1 21 17 0 17 1 0 20 -17 19 -17 20 0 20 14 0 15 3 6 14 -9 11 -9 15 1
19 10 3 9 9 -5 25 -14 15 -15 21 -5 25 19 7 -58 86 -102 104 -19 9 -82 32
-140 53 -58 20 -157 56 -220 80 -63 23 -127 45 -142 47 -35 7 -93 64 -76 74 9
6 8 13 -6 27 -13 15 -14 21 -4 25 9 3 7 11 -10 30 -17 18 -20 26 -10 29 11 4
11 8 0 20 -9 11 -9 17 -2 20 7 2 4 14 -9 30 -13 16 -17 28 -10 30 7 2 0 17
-15 35 -18 22 -22 33 -14 36 9 3 2 16 -20 40 -24 24 -30 36 -20 39 19 7 -155
178 -181 178 -11 0 -22 4 -26 10 -19 30 -174 45 -262 26z m205 -65 c137 -41
250 -184 307 -386 33 -115 36 -133 27 -139 -5 -3 -65 15 -133 39 -68 24 -182
65 -254 90 -71 25 -140 51 -152 57 -17 8 -47 2 -150 -30 -167 -53 -246 -76
-258 -77 -5 0 -17 -5 -25 -10 -22 -14 -33 -13 -52 3 -17 14 -17 16 3 33 11 10
18 23 14 28 -3 6 2 11 11 11 10 0 14 3 11 7 -4 3 -2 12 4 20 6 7 8 13 5 13 -4
0 2 10 13 22 11 11 18 25 15 30 -3 4 2 8 11 8 9 0 13 5 10 10 -3 6 -1 10 5 10
7 0 10 7 6 15 -3 9 0 15 10 15 8 0 12 5 9 10 -3 6 1 10 10 10 9 0 13 5 10 10
-3 6 1 10 10 10 9 0 13 5 10 10 -3 6 2 10 11 10 10 0 15 3 11 6 -7 8 17 34 32
34 5 0 20 10 33 23 13 13 39 32 58 42 19 11 42 25 50 31 13 9 95 35 155 48 30
7 135 -1 173 -13z"/>
</g>
</svg>
